<svg xmlns="http://www.w3.org/2000/svg" width="1125" height="696" viewBox="0 0 1125 696" version="1.1"><path d="M 1.180 39.250 C 1.390 40.727, 2.187 41.500, 3.500 41.500 C 4.813 41.500, 5.610 40.727, 5.820 39.250 C 6.082 37.404, 5.665 37, 3.500 37 C 1.335 37, 0.918 37.404, 1.180 39.250 M 515.557 96.223 C 514.166 98.207, 514 112.846, 514 233.112 C 514 359.901, 514.102 367.901, 515.750 369.874 C 517.267 371.691, 518.766 372.005, 527 372.235 L 536.500 372.500 537.086 376.894 C 537.641 381.051, 539.875 384, 542.469 384 C 545.239 384, 548 380.788, 548 377.566 C 548 375.739, 548.614 373.736, 549.364 373.113 C 550.348 372.296, 564.868 372.054, 601.614 372.241 L 652.500 372.500 653.086 376.894 C 653.682 381.358, 655.894 384, 659.036 384 C 661.535 384, 664 380.709, 664 377.371 C 664 372.732, 665.506 372, 675.045 372 C 682.150 372, 683.985 371.674, 685.345 370.171 C 686.868 368.489, 687 357.522, 687 232.826 C 687 102.810, 686.926 97.243, 685.171 95.655 C 683.500 94.143, 676.164 94, 600.228 94 L 517.113 94 515.557 96.223 M 591.216 118.830 C 584.151 121.351, 578.846 126.076, 574.745 133.500 C 571.519 139.338, 571.566 151.701, 574.837 158 C 579.498 166.974, 585.395 171.501, 595 173.481 C 604.705 175.481, 614.359 172.472, 621.140 165.332 C 627.205 158.946, 628.483 155.583, 628.483 146 C 628.483 136.871, 627.494 134.023, 621.821 126.803 C 615.521 118.786, 601.541 115.144, 591.216 118.830 M 593.223 130.119 C 586.826 133.285, 583.635 139.272, 584.197 147.052 C 584.901 156.776, 591.170 163, 600.262 163 C 618.762 163, 624.391 137.532, 607.579 129.896 C 602.239 127.471, 598.453 127.530, 593.223 130.119 M 588.951 210.993 C 565.893 214.671, 544.552 234.424, 538.489 257.703 C 536.552 265.139, 536.578 280.943, 538.539 288.540 C 544.263 310.717, 559.664 326.667, 583 334.589 C 590.759 337.222, 610.243 337.222, 618 334.588 C 640.693 326.882, 654.703 312.990, 661.905 291.052 C 664.431 283.356, 664.775 266.500, 662.574 258.232 C 656.802 236.548, 639.911 218.849, 619 212.572 C 612.407 210.593, 596.649 209.765, 588.951 210.993 M 457.572 213.250 C 454.976 217.214, 450.875 229.192, 448.414 240 C 441.903 268.604, 443.427 301.726, 452.509 329 C 453.883 333.125, 455.915 337.990, 457.026 339.812 C 458.737 342.616, 459.538 343.076, 462.266 342.812 C 464.542 342.591, 465.834 341.767, 466.672 340 C 467.686 337.861, 467.301 335.840, 464.007 326 C 457.672 307.079, 456.508 299.344, 456.554 276.500 C 456.600 254.373, 457.958 245.598, 464.110 227.679 C 467.537 217.697, 467.900 214.789, 466.003 212.503 C 464.086 210.193, 459.297 210.618, 457.572 213.250 M 735.200 212.200 C 733.300 214.100, 733.759 217.562, 737.416 228.905 C 742.817 245.658, 744.077 253.054, 744.696 271.627 C 745.446 294.164, 743.516 307.501, 736.520 328.116 C 733.475 337.088, 733.328 340.570, 735.934 341.965 C 741.773 345.090, 744.551 341.944, 749.385 326.733 C 755.300 308.123, 756.432 300.143, 756.441 277 C 756.447 259.819, 756.090 254.715, 754.237 245.476 C 751.112 229.894, 745.529 213.721, 742.600 211.765 C 740.882 210.618, 736.526 210.874, 735.200 212.200 M 491.347 221.995 C 486.080 224.120, 478.995 253.665, 479.003 273.474 C 479.011 293.940, 486.034 322.922, 491.487 324.995 C 494.863 326.279, 497.784 325.149, 498.775 322.176 C 499.420 320.241, 498.932 317.336, 496.901 311.020 C 491.960 295.656, 490.708 286.270, 491.294 269 C 491.817 253.627, 493.384 245.237, 498.300 231.500 C 499.283 228.754, 499.445 226.725, 498.816 225.028 C 497.370 221.125, 495.443 220.343, 491.347 221.995 M 588.634 222.519 C 579.669 224.792, 571.172 229.774, 563.982 236.973 C 548.137 252.838, 544.520 276.690, 554.756 297.813 C 558.472 305.481, 568.866 315.910, 576.750 319.881 C 598.446 330.808, 622.470 326.417, 638.780 308.542 C 653.252 292.681, 656.274 269.388, 646.462 249.333 C 643.241 242.750, 634.672 233.281, 628.142 229.091 C 617.370 222.179, 600.830 219.427, 588.634 222.519 M 703.655 222.829 C 701.485 225.227, 701.567 228.357, 703.964 234.666 C 707.677 244.432, 710.186 259.709, 710.262 273 C 710.340 286.582, 708.614 297.787, 704.383 311.182 C 701.439 320.502, 701.571 322.913, 705.135 324.907 C 709.635 327.424, 712.153 324.792, 715.817 313.742 C 724.065 288.870, 724.117 258.999, 715.958 233.528 C 712.949 224.135, 710.691 221, 706.932 221 C 706.040 221, 704.565 221.823, 703.655 222.829 M 593.168 258.146 C 578.523 265.395, 581.550 287.148, 597.666 290.470 C 602.313 291.427, 608.926 289.274, 612.590 285.610 C 621.029 277.171, 618.782 263.682, 608.030 258.250 C 602.461 255.436, 598.695 255.410, 593.168 258.146 M 596.655 269.829 C 592.996 273.872, 595.862 279.342, 601.357 278.804 C 607.595 278.194, 607.425 268, 601.176 268 C 599.600 268, 597.565 268.823, 596.655 269.829 M 389.455 399.455 L 387 401.909 387 502.531 L 387 603.154 389.923 606.077 L 392.846 609 599.500 609 L 806.154 609 809.077 606.077 L 812 603.154 812 502.531 L 812 401.909 809.545 399.455 L 807.091 397 599.500 397 L 391.909 397 389.455 399.455 M 391 401 C 389.027 402.973, 389 404.333, 389 502.927 L 389 602.855 391.644 604.934 L 394.288 607.014 600.108 606.757 C 796.386 606.512, 806.011 606.417, 807.714 604.709 C 809.409 603.010, 809.485 597.794, 809.212 502.747 C 808.952 412.131, 808.771 402.404, 807.307 400.787 C 805.764 399.082, 796.231 399, 599.345 399 C 394.333 399, 392.987 399.013, 391 401 M 410.500 413.907 L 405.500 414.500 405.237 447.668 L 404.973 480.835 408.188 481.541 C 414.690 482.969, 436.226 482.376, 442.316 480.601 C 453.612 477.309, 459.287 468.102, 456.896 456.951 C 455.847 452.061, 451.095 446, 448.310 446 C 446.255 446, 446.751 444.728, 450.003 441.659 C 453.569 438.293, 454.425 435.464, 453.733 429.326 C 452.808 421.117, 446.955 415.894, 436.674 414.104 C 430.110 412.961, 419.175 412.878, 410.500 413.907 M 512.250 413.641 C 511.342 414.023, 511 417.697, 511 427.083 L 511 440 498.500 440 L 486 440 486 427 L 486 414 478 414 L 470 414 470 448 L 470 482 478 482 L 486 482 486 467.500 L 486 453 498.500 453 L 511 453 511 467.500 L 511 482 519.013 482 L 527.026 482 526.763 447.750 L 526.500 413.500 520 413.308 C 516.425 413.202, 512.938 413.352, 512.250 413.641 M 563.261 413.818 C 561.851 414.713, 556.784 426.112, 548.731 446.502 C 543.842 458.883, 536 480.499, 536 481.597 C 536 481.819, 539.563 482, 543.917 482 L 551.833 482 554.250 474.750 L 556.667 467.500 570 467.500 L 583.333 467.500 585.750 474.750 L 588.167 482 596.651 482 C 604.985 482, 605.123 481.960, 604.451 479.750 C 600.632 467.183, 581.710 420.297, 578.421 415.250 C 577.157 413.311, 576.093 413.002, 570.727 413.015 C 567.302 413.024, 563.942 413.385, 563.261 413.818 M 635.976 435.750 C 635.952 458.937, 635.310 465.119, 632.648 467.780 C 630.097 470.332, 621.950 470.514, 616.583 468.140 L 611.866 466.053 609.433 471.555 C 608.095 474.581, 607 477.457, 607 477.946 C 607 478.435, 609.138 479.659, 611.750 480.667 C 615.289 482.033, 619.219 482.500, 627.165 482.500 C 637.412 482.500, 637.999 482.382, 642.117 479.486 C 650.372 473.682, 650.459 473.302, 650.807 441.250 L 651.114 413 643.557 413 L 636 413 635.976 435.750 M 685.500 415.359 C 683.282 418.744, 671.182 448.067, 665.222 464.500 C 662.429 472.200, 659.832 479.307, 659.449 480.292 C 658.809 481.941, 659.420 482.061, 667.044 481.792 L 675.335 481.500 677.418 475.478 C 678.563 472.166, 679.864 468.904, 680.309 468.228 C 680.878 467.364, 684.898 467, 693.879 467 L 706.639 467 709.180 474.250 L 711.720 481.500 719.941 481.792 C 728.102 482.081, 728.156 482.067, 727.459 479.792 C 722.971 465.142, 702.620 415.123, 700.596 413.765 C 699.993 413.361, 696.698 413.024, 693.273 413.015 C 687.825 413.002, 686.853 413.295, 685.500 415.359 M 737 448 L 737 482 744.500 482 L 752 482 752.045 459.750 L 752.090 437.500 756.595 442.500 C 761.125 447.527, 776.560 469.830, 780.991 477.750 C 783.363 481.990, 783.382 482, 789.184 482 L 795 482 795 448 L 795 414 788 414 L 781 414 781 433.500 C 781 444.225, 780.647 453, 780.216 453 C 779.784 453, 778.614 451.617, 777.616 449.927 C 774.727 445.036, 758.269 423.247, 753.810 418.409 C 749.822 414.083, 749.625 414, 743.373 414 L 737 414 737 448 M 418.417 426.355 C 418.131 427.101, 418.033 430.588, 418.199 434.105 L 418.500 440.500 423 440.765 C 430.073 441.182, 437.163 438.980, 438.933 435.818 C 441.134 431.886, 439.452 427.841, 434.979 426.306 C 430.011 424.602, 419.078 424.634, 418.417 426.355 M 565.207 442.291 C 562.893 448.500, 561 453.900, 561 454.291 C 561 455.245, 578.995 455.204, 579.020 454.250 C 579.057 452.863, 570.559 431, 569.983 431 C 569.670 431, 567.520 436.081, 565.207 442.291 M 691.410 434.562 C 689.435 439.287, 684 453.963, 684 454.568 C 684 454.806, 688.323 455, 693.607 455 C 702.348 455, 703.153 454.842, 702.536 453.250 C 702.163 452.288, 700.268 447.225, 698.325 442 C 696.381 436.775, 694.398 432.083, 693.919 431.573 C 693.403 431.026, 692.376 432.249, 691.410 434.562 M 418.422 453.344 C 418.138 454.083, 418.040 458.020, 418.203 462.094 L 418.500 469.500 425.500 469.817 C 435.238 470.257, 439.786 468.757, 441.555 464.522 C 443.632 459.552, 441.953 455.599, 436.910 453.581 C 431.889 451.572, 419.164 451.409, 418.422 453.344 M 411.600 501.250 C 409.245 517.203, 403.938 590.317, 405.059 591.363 C 405.302 591.589, 409.775 591.938, 415 592.137 L 424.500 592.500 424.714 587 C 425.882 557.021, 427.336 532.235, 427.997 531.049 C 428.606 529.955, 429.164 530.448, 430.263 533.049 C 431.064 534.947, 435.679 545.950, 440.518 557.500 C 445.356 569.050, 449.765 579.081, 450.314 579.791 C 451.002 580.680, 453.468 580.991, 458.238 580.791 L 465.164 580.500 475.759 555.727 C 481.586 542.101, 486.689 531.301, 487.099 531.727 C 487.745 532.398, 489.664 564.733, 490.289 585.500 L 490.500 592.500 500.750 592.785 L 511 593.070 511 587.247 C 511 573.234, 506.444 514.093, 504.337 500.750 L 503.744 497 493.890 497 L 484.035 497 478.189 509.250 C 474.974 515.987, 469.278 528.587, 465.531 537.250 C 461.785 545.913, 458.432 553, 458.081 553 C 457.730 553, 455.014 547.263, 452.045 540.250 C 449.077 533.237, 443.383 520.638, 439.393 512.250 L 432.139 497 422.183 497 L 412.227 497 411.600 501.250 M 556.486 502.717 C 545.876 525.519, 522 587.026, 522 591.557 C 522 592.725, 524.047 592.999, 532.750 592.994 L 543.500 592.989 547.076 582.744 L 550.653 572.500 569.193 572.228 L 587.734 571.957 590.915 581.228 C 592.664 586.328, 594.284 591.063, 594.516 591.750 C 594.994 593.168, 618 593.607, 618 592.199 C 618 588.719, 594.930 529.109, 586.187 510 L 580.469 497.500 569.823 497.217 L 559.177 496.934 556.486 502.717 M 630.240 544.750 L 630.500 592.500 662.500 592.500 L 694.500 592.500 694.500 583.500 L 694.500 574.500 673.250 574.230 L 652 573.960 652 535.480 L 652 497 640.990 497 L 629.981 497 630.240 544.750 M 732.012 508.250 C 725.613 521.879, 715.166 547.903, 705.879 573.345 C 702.096 583.710, 699 592.387, 699 592.628 C 699 592.869, 704.026 592.938, 710.169 592.783 L 721.337 592.500 724.759 582.229 L 728.181 571.957 747.257 572.229 L 766.333 572.500 769.417 581.522 C 771.112 586.485, 772.899 591.155, 773.388 591.900 C 774.072 592.944, 776.538 593.145, 784.153 592.779 C 789.586 592.517, 794.240 592.093, 794.496 591.837 C 795.640 590.693, 774.800 535.646, 763.883 510.974 L 757.699 497 747.496 497 L 737.293 497 732.012 508.250 M 740.002 536.750 C 736.588 545.962, 733.590 553.837, 733.338 554.250 C 733.087 554.663, 739.184 555, 746.887 555 L 760.892 555 759.075 549.750 C 755.071 538.180, 747.668 520, 746.961 520 C 746.548 520, 743.417 527.538, 740.002 536.750 M 562.196 537.617 C 558.735 546.758, 556.089 554.423, 556.315 554.649 C 556.542 554.875, 562.556 554.934, 569.681 554.780 L 582.636 554.500 576.459 538.047 C 573.062 528.998, 569.879 521.460, 569.385 521.295 C 568.891 521.130, 565.656 528.475, 562.196 537.617" stroke="none" fill="#aa744b" fill-rule="evenodd"/><path d="M 72 348 L 72 696 598.500 696 L 1125 696 1125 348 L 1125 0 598.500 0 L 72 0 72 348 M 515.557 96.223 C 514.166 98.207, 514 112.846, 514 233.112 C 514 359.901, 514.102 367.901, 515.750 369.874 C 517.267 371.691, 518.766 372.005, 527 372.235 L 536.500 372.500 537.086 376.894 C 537.641 381.051, 539.875 384, 542.469 384 C 545.239 384, 548 380.788, 548 377.566 C 548 375.739, 548.614 373.736, 549.364 373.113 C 550.348 372.296, 564.868 372.054, 601.614 372.241 L 652.500 372.500 653.086 376.894 C 653.682 381.358, 655.894 384, 659.036 384 C 661.535 384, 664 380.709, 664 377.371 C 664 372.732, 665.506 372, 675.045 372 C 682.150 372, 683.985 371.674, 685.345 370.171 C 686.868 368.489, 687 357.522, 687 232.826 C 687 102.810, 686.926 97.243, 685.171 95.655 C 683.500 94.143, 676.164 94, 600.228 94 L 517.113 94 515.557 96.223 M 591.216 118.830 C 584.151 121.351, 578.846 126.076, 574.745 133.500 C 571.519 139.338, 571.566 151.701, 574.837 158 C 579.498 166.974, 585.395 171.501, 595 173.481 C 604.705 175.481, 614.359 172.472, 621.140 165.332 C 627.205 158.946, 628.483 155.583, 628.483 146 C 628.483 136.871, 627.494 134.023, 621.821 126.803 C 615.521 118.786, 601.541 115.144, 591.216 118.830 M 593.223 130.119 C 586.826 133.285, 583.635 139.272, 584.197 147.052 C 584.901 156.776, 591.170 163, 600.262 163 C 618.762 163, 624.391 137.532, 607.579 129.896 C 602.239 127.471, 598.453 127.530, 593.223 130.119 M 588.951 210.993 C 565.893 214.671, 544.552 234.424, 538.489 257.703 C 536.552 265.139, 536.578 280.943, 538.539 288.540 C 544.263 310.717, 559.664 326.667, 583 334.589 C 590.759 337.222, 610.243 337.222, 618 334.588 C 640.693 326.882, 654.703 312.990, 661.905 291.052 C 664.431 283.356, 664.775 266.500, 662.574 258.232 C 656.802 236.548, 639.911 218.849, 619 212.572 C 612.407 210.593, 596.649 209.765, 588.951 210.993 M 457.572 213.250 C 454.976 217.214, 450.875 229.192, 448.414 240 C 441.903 268.604, 443.427 301.726, 452.509 329 C 453.883 333.125, 455.915 337.990, 457.026 339.812 C 458.737 342.616, 459.538 343.076, 462.266 342.812 C 464.542 342.591, 465.834 341.767, 466.672 340 C 467.686 337.861, 467.301 335.840, 464.007 326 C 457.672 307.079, 456.508 299.344, 456.554 276.500 C 456.600 254.373, 457.958 245.598, 464.110 227.679 C 467.537 217.697, 467.900 214.789, 466.003 212.503 C 464.086 210.193, 459.297 210.618, 457.572 213.250 M 735.200 212.200 C 733.300 214.100, 733.759 217.562, 737.416 228.905 C 742.817 245.658, 744.077 253.054, 744.696 271.627 C 745.446 294.164, 743.516 307.501, 736.520 328.116 C 733.475 337.088, 733.328 340.570, 735.934 341.965 C 741.773 345.090, 744.551 341.944, 749.385 326.733 C 755.300 308.123, 756.432 300.143, 756.441 277 C 756.447 259.819, 756.090 254.715, 754.237 245.476 C 751.112 229.894, 745.529 213.721, 742.600 211.765 C 740.882 210.618, 736.526 210.874, 735.200 212.200 M 491.347 221.995 C 486.080 224.120, 478.995 253.665, 479.003 273.474 C 479.011 293.940, 486.034 322.922, 491.487 324.995 C 494.863 326.279, 497.784 325.149, 498.775 322.176 C 499.420 320.241, 498.932 317.336, 496.901 311.020 C 491.960 295.656, 490.708 286.270, 491.294 269 C 491.817 253.627, 493.384 245.237, 498.300 231.500 C 499.283 228.754, 499.445 226.725, 498.816 225.028 C 497.370 221.125, 495.443 220.343, 491.347 221.995 M 588.634 222.519 C 579.669 224.792, 571.172 229.774, 563.982 236.973 C 548.137 252.838, 544.520 276.690, 554.756 297.813 C 558.472 305.481, 568.866 315.910, 576.750 319.881 C 598.446 330.808, 622.470 326.417, 638.780 308.542 C 653.252 292.681, 656.274 269.388, 646.462 249.333 C 643.241 242.750, 634.672 233.281, 628.142 229.091 C 617.370 222.179, 600.830 219.427, 588.634 222.519 M 703.655 222.829 C 701.485 225.227, 701.567 228.357, 703.964 234.666 C 707.677 244.432, 710.186 259.709, 710.262 273 C 710.340 286.582, 708.614 297.787, 704.383 311.182 C 701.439 320.502, 701.571 322.913, 705.135 324.907 C 709.635 327.424, 712.153 324.792, 715.817 313.742 C 724.065 288.870, 724.117 258.999, 715.958 233.528 C 712.949 224.135, 710.691 221, 706.932 221 C 706.040 221, 704.565 221.823, 703.655 222.829 M 593.168 258.146 C 578.523 265.395, 581.550 287.148, 597.666 290.470 C 602.313 291.427, 608.926 289.274, 612.590 285.610 C 621.029 277.171, 618.782 263.682, 608.030 258.250 C 602.461 255.436, 598.695 255.410, 593.168 258.146 M 596.655 269.829 C 592.996 273.872, 595.862 279.342, 601.357 278.804 C 607.595 278.194, 607.425 268, 601.176 268 C 599.600 268, 597.565 268.823, 596.655 269.829 M 389.455 399.455 L 387 401.909 387 502.531 L 387 603.154 389.923 606.077 L 392.846 609 599.500 609 L 806.154 609 809.077 606.077 L 812 603.154 812 502.531 L 812 401.909 809.545 399.455 L 807.091 397 599.500 397 L 391.909 397 389.455 399.455 M 391 401 C 389.027 402.973, 389 404.333, 389 502.927 L 389 602.855 391.644 604.934 L 394.288 607.014 600.108 606.757 C 796.386 606.512, 806.011 606.417, 807.714 604.709 C 809.409 603.010, 809.485 597.794, 809.212 502.747 C 808.952 412.131, 808.771 402.404, 807.307 400.787 C 805.764 399.082, 796.231 399, 599.345 399 C 394.333 399, 392.987 399.013, 391 401 M 410.500 413.907 L 405.500 414.500 405.237 447.668 L 404.973 480.835 408.188 481.541 C 414.690 482.969, 436.226 482.376, 442.316 480.601 C 453.612 477.309, 459.287 468.102, 456.896 456.951 C 455.847 452.061, 451.095 446, 448.310 446 C 446.255 446, 446.751 444.728, 450.003 441.659 C 453.569 438.293, 454.425 435.464, 453.733 429.326 C 452.808 421.117, 446.955 415.894, 436.674 414.104 C 430.110 412.961, 419.175 412.878, 410.500 413.907 M 512.250 413.641 C 511.342 414.023, 511 417.697, 511 427.083 L 511 440 498.500 440 L 486 440 486 427 L 486 414 478 414 L 470 414 470 448 L 470 482 478 482 L 486 482 486 467.500 L 486 453 498.500 453 L 511 453 511 467.500 L 511 482 519.013 482 L 527.026 482 526.763 447.750 L 526.500 413.500 520 413.308 C 516.425 413.202, 512.938 413.352, 512.250 413.641 M 563.261 413.818 C 561.851 414.713, 556.784 426.112, 548.731 446.502 C 543.842 458.883, 536 480.499, 536 481.597 C 536 481.819, 539.563 482, 543.917 482 L 551.833 482 554.250 474.750 L 556.667 467.500 570 467.500 L 583.333 467.500 585.750 474.750 L 588.167 482 596.651 482 C 604.985 482, 605.123 481.960, 604.451 479.750 C 600.632 467.183, 581.710 420.297, 578.421 415.250 C 577.157 413.311, 576.093 413.002, 570.727 413.015 C 567.302 413.024, 563.942 413.385, 563.261 413.818 M 635.976 435.750 C 635.952 458.937, 635.310 465.119, 632.648 467.780 C 630.097 470.332, 621.950 470.514, 616.583 468.140 L 611.866 466.053 609.433 471.555 C 608.095 474.581, 607 477.457, 607 477.946 C 607 478.435, 609.138 479.659, 611.750 480.667 C 615.289 482.033, 619.219 482.500, 627.165 482.500 C 637.412 482.500, 637.999 482.382, 642.117 479.486 C 650.372 473.682, 650.459 473.302, 650.807 441.250 L 651.114 413 643.557 413 L 636 413 635.976 435.750 M 685.500 415.359 C 683.282 418.744, 671.182 448.067, 665.222 464.500 C 662.429 472.200, 659.832 479.307, 659.449 480.292 C 658.809 481.941, 659.420 482.061, 667.044 481.792 L 675.335 481.500 677.418 475.478 C 678.563 472.166, 679.864 468.904, 680.309 468.228 C 680.878 467.364, 684.898 467, 693.879 467 L 706.639 467 709.180 474.250 L 711.720 481.500 719.941 481.792 C 728.102 482.081, 728.156 482.067, 727.459 479.792 C 722.971 465.142, 702.620 415.123, 700.596 413.765 C 699.993 413.361, 696.698 413.024, 693.273 413.015 C 687.825 413.002, 686.853 413.295, 685.500 415.359 M 737 448 L 737 482 744.500 482 L 752 482 752.045 459.750 L 752.090 437.500 756.595 442.500 C 761.125 447.527, 776.560 469.830, 780.991 477.750 C 783.363 481.990, 783.382 482, 789.184 482 L 795 482 795 448 L 795 414 788 414 L 781 414 781 433.500 C 781 444.225, 780.647 453, 780.216 453 C 779.784 453, 778.614 451.617, 777.616 449.927 C 774.727 445.036, 758.269 423.247, 753.810 418.409 C 749.822 414.083, 749.625 414, 743.373 414 L 737 414 737 448 M 418.417 426.355 C 418.131 427.101, 418.033 430.588, 418.199 434.105 L 418.500 440.500 423 440.765 C 430.073 441.182, 437.163 438.980, 438.933 435.818 C 441.134 431.886, 439.452 427.841, 434.979 426.306 C 430.011 424.602, 419.078 424.634, 418.417 426.355 M 565.207 442.291 C 562.893 448.500, 561 453.900, 561 454.291 C 561 455.245, 578.995 455.204, 579.020 454.250 C 579.057 452.863, 570.559 431, 569.983 431 C 569.670 431, 567.520 436.081, 565.207 442.291 M 691.410 434.562 C 689.435 439.287, 684 453.963, 684 454.568 C 684 454.806, 688.323 455, 693.607 455 C 702.348 455, 703.153 454.842, 702.536 453.250 C 702.163 452.288, 700.268 447.225, 698.325 442 C 696.381 436.775, 694.398 432.083, 693.919 431.573 C 693.403 431.026, 692.376 432.249, 691.410 434.562 M 418.422 453.344 C 418.138 454.083, 418.040 458.020, 418.203 462.094 L 418.500 469.500 425.500 469.817 C 435.238 470.257, 439.786 468.757, 441.555 464.522 C 443.632 459.552, 441.953 455.599, 436.910 453.581 C 431.889 451.572, 419.164 451.409, 418.422 453.344 M 411.600 501.250 C 409.245 517.203, 403.938 590.317, 405.059 591.363 C 405.302 591.589, 409.775 591.938, 415 592.137 L 424.500 592.500 424.714 587 C 425.882 557.021, 427.336 532.235, 427.997 531.049 C 428.606 529.955, 429.164 530.448, 430.263 533.049 C 431.064 534.947, 435.679 545.950, 440.518 557.500 C 445.356 569.050, 449.765 579.081, 450.314 579.791 C 451.002 580.680, 453.468 580.991, 458.238 580.791 L 465.164 580.500 475.759 555.727 C 481.586 542.101, 486.689 531.301, 487.099 531.727 C 487.745 532.398, 489.664 564.733, 490.289 585.500 L 490.500 592.500 500.750 592.785 L 511 593.070 511 587.247 C 511 573.234, 506.444 514.093, 504.337 500.750 L 503.744 497 493.890 497 L 484.035 497 478.189 509.250 C 474.974 515.987, 469.278 528.587, 465.531 537.250 C 461.785 545.913, 458.432 553, 458.081 553 C 457.730 553, 455.014 547.263, 452.045 540.250 C 449.077 533.237, 443.383 520.638, 439.393 512.250 L 432.139 497 422.183 497 L 412.227 497 411.600 501.250 M 556.486 502.717 C 545.876 525.519, 522 587.026, 522 591.557 C 522 592.725, 524.047 592.999, 532.750 592.994 L 543.500 592.989 547.076 582.744 L 550.653 572.500 569.193 572.228 L 587.734 571.957 590.915 581.228 C 592.664 586.328, 594.284 591.063, 594.516 591.750 C 594.994 593.168, 618 593.607, 618 592.199 C 618 588.719, 594.930 529.109, 586.187 510 L 580.469 497.500 569.823 497.217 L 559.177 496.934 556.486 502.717 M 630.240 544.750 L 630.500 592.500 662.500 592.500 L 694.500 592.500 694.500 583.500 L 694.500 574.500 673.250 574.230 L 652 573.960 652 535.480 L 652 497 640.990 497 L 629.981 497 630.240 544.750 M 732.012 508.250 C 725.613 521.879, 715.166 547.903, 705.879 573.345 C 702.096 583.710, 699 592.387, 699 592.628 C 699 592.869, 704.026 592.938, 710.169 592.783 L 721.337 592.500 724.759 582.229 L 728.181 571.957 747.257 572.229 L 766.333 572.500 769.417 581.522 C 771.112 586.485, 772.899 591.155, 773.388 591.900 C 774.072 592.944, 776.538 593.145, 784.153 592.779 C 789.586 592.517, 794.240 592.093, 794.496 591.837 C 795.640 590.693, 774.800 535.646, 763.883 510.974 L 757.699 497 747.496 497 L 737.293 497 732.012 508.250 M 740.002 536.750 C 736.588 545.962, 733.590 553.837, 733.338 554.250 C 733.087 554.663, 739.184 555, 746.887 555 L 760.892 555 759.075 549.750 C 755.071 538.180, 747.668 520, 746.961 520 C 746.548 520, 743.417 527.538, 740.002 536.750 M 562.196 537.617 C 558.735 546.758, 556.089 554.423, 556.315 554.649 C 556.542 554.875, 562.556 554.934, 569.681 554.780 L 582.636 554.500 576.459 538.047 C 573.062 528.998, 569.879 521.460, 569.385 521.295 C 568.891 521.130, 565.656 528.475, 562.196 537.617" stroke="none" fill="#1e1e1e" fill-rule="evenodd"/></svg>